HIERARCHY
ROOT reference
{
  OFFSET -65.3212 -1.93545 -120.338
  CHANNELS 6 Xposition Yposition Zposition Zrotation Xrotation Yrotation
  JOINT Hips
  {
    OFFSET 0 78.7191 0
    CHANNELS 6 Xposition Yposition Zposition Zrotation Xrotation Yrotation
    JOINT Chest
    {
      OFFSET 0 8.7983 -4.7612
      CHANNELS 6 Xposition Yposition Zposition Zrotation Xrotation Yrotation
      JOINT Chest2
      {
        OFFSET 0 8.0291 0.4195
        CHANNELS 6 Xposition Yposition Zposition Zrotation Xrotation Yrotation
        JOINT Chest3
        {
          OFFSET 0 9.9351 -2.2114
          CHANNELS 6 Xposition Yposition Zposition Zrotation Xrotation Yrotation
          JOINT Neck
          {
            OFFSET 0 22.3885 -0.4656
            CHANNELS 6 Xposition Yposition Zposition Zrotation Xrotation Yrotation
            JOINT Head
            {
              OFFSET -0.0001 12.643 3.4389
              CHANNELS 6 Xposition Yposition Zposition Zrotation Xrotation Yrotation
              End Site
              {
                OFFSET 0.0001 17.6655 0.5274
              }
            }
          }
          JOINT LeftCollar
          {
            OFFSET 2.2603 21.606 7.4023
            CHANNELS 6 Xposition Yposition Zposition Zrotation Xrotation Yrotation
            JOINT LeftShoulder
            {
              OFFSET 13.5163 -1.1332 -5.0146
              CHANNELS 6 Xposition Yposition Zposition Zrotation Xrotation Yrotation
              JOINT LeftElbow
              {
                OFFSET -0.0995 -28.05 -0.2431
                CHANNELS 6 Xposition Yposition Zposition Zrotation Xrotation Yrotation
                JOINT LeftWrist
                {
                  OFFSET 0.0679 -23.3996 -0.1402
                  CHANNELS 6 Xposition Yposition Zposition Zrotation Xrotation Yrotation
                  JOINT LeftFinger1
                  {
                    OFFSET 0.7932 -9.069 2.5189
                    CHANNELS 6 Xposition Yposition Zposition Zrotation Xrotation Yrotation
                    JOINT LeftFinger11
                    {
                      OFFSET -0.8272 -3.3923 0.5977
                      CHANNELS 6 Xposition Yposition Zposition Zrotation Xrotation Yrotation
                      JOINT LeftFinger12
                      {
                        OFFSET -0.5649 -2.3158 0.4082
                        CHANNELS 6 Xposition Yposition Zposition Zrotation Xrotation Yrotation
                        End Site
                        {
                          OFFSET -0.4919 -1.6479 0.2673
                        }
                      }
                    }
                  }
                  JOINT LeftFinger2
                  {
                    OFFSET 0.9159 -9.2044 0.2193
                    CHANNELS 6 Xposition Yposition Zposition Zrotation Xrotation Yrotation
                    JOINT LeftFinger21
                    {
                      OFFSET 0.0117 -4.1944 -0.0248
                      CHANNELS 6 Xposition Yposition Zposition Zrotation Xrotation Yrotation
                      JOINT LeftFinger22
                      {
                        OFFSET 0.0071 -2.3249 -0.0142
                        CHANNELS 6 Xposition Yposition Zposition Zrotation Xrotation Yrotation
                        End Site
                        {
                          OFFSET -0.1475 -2.0882 0.0028
                        }
                      }
                    }
                  }
                  JOINT LeftFinger3
                  {
                    OFFSET 0.6113 -8.7231 -2.0637
                    CHANNELS 6 Xposition Yposition Zposition Zrotation Xrotation Yrotation
                    JOINT LeftFinger31
                    {
                      OFFSET -0.1927 -3.8059 -0.2383
                      CHANNELS 6 Xposition Yposition Zposition Zrotation Xrotation Yrotation
                      JOINT LeftFinger32
                      {
                        OFFSET -0.1091 -2.1688 -0.1362
                        CHANNELS 6 Xposition Yposition Zposition Zrotation Xrotation Yrotation
                        End Site
                        {
                          OFFSET -0.2358 -1.9176 -0.0906
                        }
                      }
                    }
                  }
                  JOINT LeftFinger4
                  {
                    OFFSET -0.6151 -8.0947 -3.5641
                    CHANNELS 6 Xposition Yposition Zposition Zrotation Xrotation Yrotation
                    JOINT LeftFinger41
                    {
                      OFFSET -0.4882 -2.341 -0.6462
                      CHANNELS 6 Xposition Yposition Zposition Zrotation Xrotation Yrotation
                      JOINT LeftFinger42
                      {
                        OFFSET -0.3575 -1.7167 -0.4742
                        CHANNELS 6 Xposition Yposition Zposition Zrotation Xrotation Yrotation
                        End Site
                        {
                          OFFSET -0.4187 -1.5237 -0.3496
                        }
                      }
                    }
                  }
                  JOINT LeftFinger0
                  {
                    OFFSET -1.42 -1.8761 1.4223
                    CHANNELS 6 Xposition Yposition Zposition Zrotation Xrotation Yrotation
                    JOINT LeftFinger01
                    {
                      OFFSET -1.1471 -3.4929 2.6334
                      CHANNELS 6 Xposition Yposition Zposition Zrotation Xrotation Yrotation
                      JOINT LeftFinger02
                      {
                        OFFSET -0.823 -2.3 1.6571
                        CHANNELS 6 Xposition Yposition Zposition Zrotation Xrotation Yrotation
                        End Site
                        {
                          OFFSET -0.5822 -1.6914 1.1582
                        }
                      }
                    }
                  }
                }
              }
            }
          }
          JOINT RightCollar
          {
            OFFSET -2.2603 21.606 7.4023
            CHANNELS 6 Xposition Yposition Zposition Zrotation Xrotation Yrotation
            JOINT RightShoulder
            {
              OFFSET -13.5187 -1.1334 -5.0155
              CHANNELS 6 Xposition Yposition Zposition Zrotation Xrotation Yrotation
              JOINT RightElbow
              {
                OFFSET 0.0994 -28.0499 -0.2431
                CHANNELS 6 Xposition Yposition Zposition Zrotation Xrotation Yrotation
                JOINT RightWrist
                {
                  OFFSET -0.0679 -23.3996 -0.1402
                  CHANNELS 6 Xposition Yposition Zposition Zrotation Xrotation Yrotation
                  JOINT RightFinger1
                  {
                    OFFSET -0.7932 -9.0691 2.5189
                    CHANNELS 6 Xposition Yposition Zposition Zrotation Xrotation Yrotation
                    JOINT RightFinger11
                    {
                      OFFSET 0.8272 -3.3923 0.5977
                      CHANNELS 6 Xposition Yposition Zposition Zrotation Xrotation Yrotation
                      JOINT RightFinger12
                      {
                        OFFSET 0.565 -2.3158 0.4082
                        CHANNELS 6 Xposition Yposition Zposition Zrotation Xrotation Yrotation
                        End Site
                        {
                          OFFSET 0.4919 -1.6479 0.2673
                        }
                      }
                    }
                  }
                  JOINT RightFinger2
                  {
                    OFFSET -0.916 -9.2044 0.2193
                    CHANNELS 6 Xposition Yposition Zposition Zrotation Xrotation Yrotation
                    JOINT RightFinger21
                    {
                      OFFSET -0.0117 -4.1944 -0.0248
                      CHANNELS 6 Xposition Yposition Zposition Zrotation Xrotation Yrotation
                      JOINT RightFinger22
                      {
                        OFFSET -0.0071 -2.3249 -0.0142
                        CHANNELS 6 Xposition Yposition Zposition Zrotation Xrotation Yrotation
                        End Site
                        {
                          OFFSET 0.1475 -2.0882 0.0028
                        }
                      }
                    }
                  }
                  JOINT RightFinger3
                  {
                    OFFSET -0.6113 -8.7231 -2.0637
                    CHANNELS 6 Xposition Yposition Zposition Zrotation Xrotation Yrotation
                    JOINT RightFinger31
                    {
                      OFFSET 0.1927 -3.8059 -0.2383
                      CHANNELS 6 Xposition Yposition Zposition Zrotation Xrotation Yrotation
                      JOINT RightFinger32
                      {
                        OFFSET 0.1091 -2.1688 -0.1362
                        CHANNELS 6 Xposition Yposition Zposition Zrotation Xrotation Yrotation
                        End Site
                        {
                          OFFSET 0.2358 -1.9176 -0.0906
                        }
                      }
                    }
                  }
                  JOINT RightFinger4
                  {
                    OFFSET 0.6151 -8.0947 -3.564
                    CHANNELS 6 Xposition Yposition Zposition Zrotation Xrotation Yrotation
                    JOINT RightFinger41
                    {
                      OFFSET 0.4882 -2.341 -0.6462
                      CHANNELS 6 Xposition Yposition Zposition Zrotation Xrotation Yrotation
                      JOINT RightFinger42
                      {
                        OFFSET 0.3574 -1.7166 -0.4742
                        CHANNELS 6 Xposition Yposition Zposition Zrotation Xrotation Yrotation
                        End Site
                        {
                          OFFSET 0.4187 -1.5237 -0.3496
                        }
                      }
                    }
                  }
                  JOINT RightFinger0
                  {
                    OFFSET 1.4199 -1.8761 1.4221
                    CHANNELS 6 Xposition Yposition Zposition Zrotation Xrotation Yrotation
                    JOINT RightFinger01
                    {
                      OFFSET 1.1472 -3.4929 2.6336
                      CHANNELS 6 Xposition Yposition Zposition Zrotation Xrotation Yrotation
                      JOINT RightFinger02
                      {
                        OFFSET 0.8229 -2.3 1.6571
                        CHANNELS 6 Xposition Yposition Zposition Zrotation Xrotation Yrotation
                        End Site
                        {
                          OFFSET 0.5822 -1.6914 1.1582
                        }
                      }
                    }
                  }
                }
              }
            }
          }
        }
      }
    }
    JOINT RightHip
    {
      OFFSET -9.412 3.9771 -0.7758
      CHANNELS 6 Xposition Yposition Zposition Zrotation Xrotation Yrotation
      JOINT RightKnee
      {
        OFFSET -0.7531 -40.938 0
        CHANNELS 6 Xposition Yposition Zposition Zrotation Xrotation Yrotation
        JOINT RightAnkle
        {
          OFFSET 0 -40.1986 0
          CHANNELS 6 Xposition Yposition Zposition Zrotation Xrotation Yrotation
          JOINT RightToe
          {
            OFFSET 0 -4.4182 9.239
            CHANNELS 6 Xposition Yposition Zposition Zrotation Xrotation Yrotation
            End Site
            {
              OFFSET 0 0 6.1981
            }
          }
        }
      }
    }
    JOINT LeftHip
    {
      OFFSET 9.4119 3.9773 -0.7758
      CHANNELS 6 Xposition Yposition Zposition Zrotation Xrotation Yrotation
      JOINT LeftKnee
      {
        OFFSET 0.7532 -40.9383 0
        CHANNELS 6 Xposition Yposition Zposition Zrotation Xrotation Yrotation
        JOINT LeftAnkle
        {
          OFFSET 0 -40.1986 0
          CHANNELS 6 Xposition Yposition Zposition Zrotation Xrotation Yrotation
          JOINT LeftToe
          {
            OFFSET 0 -4.4182 9.239
            CHANNELS 6 Xposition Yposition Zposition Zrotation Xrotation Yrotation
            End Site
            {
              OFFSET 0 0 6.1981
            }
          }
        }
      }
    }
  }
}
MOTION
Frames:	4
Frame Time:	0.0333333
-38.2961 -3.48347 -49.6349 0 0 -0 7.10543e-015 78.7191 0 -0.634997 6.14335 101.884 0 8.7983 -4.7612 -3.87875e-005 -2.15292 1.02157 -1.42109e-014 8.0291 0.4195 0.038402 -4.30549 2.04524 0 9.9351 -2.2114 0.0384035 -4.3055 2.04526 0 22.3885 -0.4656 -0.572292 13.6138 -8.57444 -0.0001 12.643 3.4389 -6.32936 -1.09988 -8.80753 2.2603 21.606 7.4023 0.496449 0.856067 -4.26274 13.5163 -1.1332 -5.0146 4.06421 31.6632 27.2212 -0.0995 -28.05 -0.2431 -10.3749 -22.1195 -10.3241 0.0679 -23.3996 -0.1402 -12.0605 1.40878 41.7644 0.7932 -9.069 2.5189 -2.3536e-005 0.000180796 0.000146377 -0.8272 -3.3923 0.5977 0.000306041 -4.26201e-005 -0.000233754 -0.5649 -2.3158 0.4082 -0.000191503 5.44358e-005 1.40022e-005 0.9159 -9.2044 0.2193 2.03447 -1.26686 0.222397 0.0117 -4.1944 -0.0248 -0.16781 -0.876186 0.196067 0.0071 -2.3249 -0.0142 2.03554 -1.26784 0.222664 0.6113 -8.7231 -2.0637 2.14037 -6.29026 2.63604 -0.1927 -3.8059 -0.2383 -0.361923 -2.21292 0.750563 -0.1091 -2.1688 -0.1362 4.51007 -3.05779 0.715169 -0.6151 -8.0947 -3.5641 11.4153 -7.35223 2.6052 -0.4882 -2.341 -0.6462 -0.0648455 -1.7371 1.50185 -0.3575 -1.7167 -0.4742 2.78868 -1.86625 0.506467 -1.42 -1.8761 1.4223 0.000227738 -8.38981e-007 -0.000392667 -1.1471 -3.4929 2.6334 -0.000174385 2.24118e-005 0.000275461 -0.823 -2.3 1.6571 -0.000181596 5.67204e-005 5.53267e-006 -2.2603 21.606 7.4023 -44.4584 -1.12581 12.6009 -13.5187 -1.1334 -5.0155 -93.066 9.49332 -52.0611 0.0994 -28.0499 -0.2431 -3.50389 -25.8583 -35.2729 -0.0679 -23.3996 -0.1402 5.22762 6.5812 -23.1092 -0.7932 -9.0691 2.5189 -26.3168 9.86702 9.08433 0.8272 -3.3923 0.5977 39.4242 12.0338 -4.97718 0.565 -2.3158 0.4082 38.7303 11.8651 -4.82267 -0.916 -9.2044 0.2193 -2.2335 10.2523 5.03865 -0.0117 -4.1944 -0.0248 52.3753 15.6205 -6.402 -0.0071 -2.3249 -0.0142 44.0892 13.7161 -4.48629 -0.6113 -8.7231 -2.0637 15.0073 7.5869 -5.70562 0.1927 -3.8059 -0.2383 37.2883 13.8497 -2.53195 0.1091 -2.1688 -0.1362 38.5715 14.2637 -2.77361 0.6151 -8.0947 -3.564 23.054 4.37541 -8.90256 0.4882 -2.341 -0.6462 30.7535 11.5468 -0.514487 0.3574 -1.7166 -0.4742 30.6849 11.5225 -0.506237 1.4199 -1.8761 1.4221 7.91152 0.880202 52.6243 1.1472 -3.4929 2.6336 -0.671307 1.52887 0.489674 0.8229 -2.3 1.6571 -4.02431 8.6295 3.04556 -9.412 3.9771 -0.7758 -4.16336 -16.8108 45.6057 -0.7531 -40.938 0 14.7159 46.9995 -7.83736 0 -40.1986 -3.55271e-015 -14.3939 -3.17281 -22.4286 0 -4.4182 9.239 25.083 -3.02993 -8.12425 9.4119 3.9773 -0.7758 -22.6958 3.30591 -2.02675 0.7532 -40.9383 -7.10543e-015 0.433061 -0.00024015 0.618527 0 -40.1986 0 8.83932 -2.41823 -5.4465 7.10543e-015 -4.4182 9.239 5.75822 5.01367 -0.805447 
-38.2523 -3.50765 -49.7226 0 0 -0 7.10543e-015 78.7191 0 -0.723752 6.23374 102.282 0 8.7983 -4.7612 -0.017233 -2.14466 0.97611 0 8.0291 0.4195 0.00213291 -4.28929 1.95364 0 9.9351 -2.2114 0.00212923 -4.28929 1.95363 0 22.3885 -0.4656 -0.568929 13.4717 -8.55138 -0.0001 12.643 3.4389 -6.39335 -1.12833 -8.82988 2.2603 21.606 7.4023 0.616353 0.869526 -4.1399 13.5163 -1.1332 -5.0146 4.1557 31.4157 27.0946 -0.0995 -28.05 -0.2431 -10.4514 -22.1197 -10.3086 0.0679 -23.3996 -0.1402 -11.2182 1.53028 41.6264 0.7932 -9.069 2.5189 -0.0400333 0.0536765 -0.0106541 -0.8272 -3.3923 0.5977 -0.0292416 0.0183464 -0.00181795 -0.5649 -2.3158 0.4082 -0.036676 0.0227508 -0.0019262 0.9159 -9.2044 0.2193 1.99753 -1.23886 0.208547 0.0117 -4.1944 -0.0248 -0.164129 -0.855076 0.191823 0.0071 -2.3249 -0.0142 1.99948 -1.2455 0.218341 0.6113 -8.7231 -2.0637 2.10543 -6.25397 2.62683 -0.1927 -3.8059 -0.2383 -0.357877 -2.18558 0.742702 -0.1091 -2.1688 -0.1362 4.46747 -3.02932 0.707314 -0.6151 -8.0947 -3.5641 11.3467 -7.31724 2.58922 -0.4882 -2.341 -0.6462 -0.0649356 -1.70989 1.47749 -0.3575 -1.7167 -0.4742 2.75109 -1.84134 0.499049 -1.42 -1.8761 1.4223 0.0137645 0.0311861 -0.00810651 -1.1471 -3.4929 2.6334 -0.00877866 -0.0113853 0.00264897 -0.823 -2.3 1.6571 0.0191911 0.0257611 -0.0053418 -2.2603 21.606 7.4023 -44.5135 -1.12967 12.3868 -13.5187 -1.1334 -5.0155 -93.3355 9.51572 -52.0076 0.0994 -28.0499 -0.2431 -3.36181 -25.4801 -34.8584 -0.0679 -23.3996 -0.1402 5.4377 6.39388 -23.4666 -0.7932 -9.0691 2.5189 -26.3168 9.86703 9.08434 0.8272 -3.3923 0.5977 39.4242 12.0338 -4.97718 0.565 -2.3158 0.4082 38.7303 11.8651 -4.82268 -0.916 -9.2044 0.2193 -2.23351 10.2523 5.03864 -0.0117 -4.1944 -0.0248 52.3753 15.6205 -6.40199 -0.0071 -2.3249 -0.0142 44.0892 13.7161 -4.48629 -0.6113 -8.7231 -2.0637 15.0073 7.58692 -5.70562 0.1927 -3.8059 -0.2383 37.2883 13.8496 -2.53194 0.1091 -2.1688 -0.1362 38.5715 14.2637 -2.7736 0.6151 -8.0947 -3.564 23.054 4.37542 -8.90258 0.4882 -2.341 -0.6462 30.7535 11.5468 -0.514487 0.3574 -1.7166 -0.4742 30.6849 11.5225 -0.506235 1.4199 -1.8761 1.4221 7.9115 0.880222 52.6243 1.1472 -3.4929 2.6336 -0.671312 1.52887 0.48967 0.8229 -2.3 1.6571 -4.02431 8.6295 3.04557 -9.412 3.9771 -0.7758 -4.40353 -16.7428 45.3734 -0.7531 -40.938 7.10543e-015 14.7981 47.0253 -7.89595 0 -40.1986 0 -14.3684 -3.38626 -22.5403 0 -4.4182 9.239 25.0743 -3.09442 -8.08939 9.4119 3.9773 -0.7758 -22.8254 3.39851 -2.36054 0.7532 -40.9383 0 0.431914 -0.00023868 0.611014 7.10543e-015 -40.1986 7.10543e-015 8.78219 -2.3966 -5.53244 0 -4.4182 9.239 5.76531 4.95708 -0.79973 
-38.1962 -3.53479 -49.8171 0 0 -0 7.10543e-015 78.7191 0 -0.794449 6.31868 102.698 0 8.7983 -4.7612 -0.0373207 -2.12699 0.917178 0 8.0291 0.4195 -0.0405622 -4.25431 1.83487 0 9.9351 -2.2114 -0.0405668 -4.25432 1.83484 -1.42109e-014 22.3885 -0.4656 -0.568946 13.3346 -8.56834 -0.0001 12.643 3.4389 -6.42177 -1.15572 -8.84528 2.2603 21.606 7.4023 0.76836 0.881062 -4.0368 13.5163 -1.1332 -5.0146 4.19708 31.1868 26.9555 -0.0995 -28.05 -0.2431 -10.4337 -22.1786 -10.3221 0.0679 -23.3996 -0.1402 -10.6739 1.47562 41.7074 0.7932 -9.069 2.5189 -0.156351 0.209288 -0.0420653 -0.8272 -3.3923 0.5977 -0.11527 0.0718472 -0.00635754 -0.5649 -2.3158 0.4082 -0.14289 0.0888218 -0.0075233 0.9159 -9.2044 0.2193 1.89025 -1.15743 0.168288 0.0117 -4.1944 -0.0248 -0.153456 -0.793676 0.179307 0.0071 -2.3249 -0.0142 1.89465 -1.18049 0.205844 0.6113 -8.7231 -2.0637 2.00331 -6.15003 2.59663 -0.1927 -3.8059 -0.2383 -0.346105 -2.10613 0.719642 -0.1091 -2.1688 -0.1362 4.34349 -2.94646 0.6846 -0.6151 -8.0947 -3.5641 11.1473 -7.21546 2.54306 -0.4882 -2.341 -0.6462 -0.0639615 -1.64865 1.42703 -0.3575 -1.7167 -0.4742 2.64179 -1.76887 0.477602 -1.42 -1.8761 1.4223 0.0534065 0.121841 -0.0307286 -1.1471 -3.4929 2.6334 -0.0173808 -0.0228123 0.00501687 -0.823 -2.3 1.6571 0.0385687 0.0514522 -0.0106956 -2.2603 21.606 7.4023 -44.5754 -1.13302 12.2195 -13.5187 -1.1334 -5.0155 -93.4274 9.5892 -51.9843 0.0994 -28.0499 -0.2431 -3.36263 -25.287 -34.7597 -0.0679 -23.3996 -0.1402 5.56543 6.30594 -23.5197 -0.7932 -9.0691 2.5189 -26.3168 9.86703 9.08434 0.8272 -3.3923 0.5977 39.4242 12.0338 -4.97716 0.565 -2.3158 0.4082 38.7303 11.8651 -4.82265 -0.916 -9.2044 0.2193 -2.23351 10.2523 5.03866 -0.0117 -4.1944 -0.0248 52.3753 15.6205 -6.40198 -0.0071 -2.3249 -0.0142 44.0892 13.7161 -4.48628 -0.6113 -8.7231 -2.0637 15.0073 7.58692 -5.7056 0.1927 -3.8059 -0.2383 37.2883 13.8497 -2.53193 0.1091 -2.1688 -0.1362 38.5715 14.2637 -2.77359 0.6151 -8.0947 -3.564 23.054 4.37542 -8.90256 0.4882 -2.341 -0.6462 30.7535 11.5468 -0.514483 0.3574 -1.7166 -0.4742 30.6849 11.5224 -0.506228 1.4199 -1.8761 1.4221 7.91149 0.880214 52.6243 1.1472 -3.4929 2.6336 -0.671302 1.52886 0.48968 0.8229 -2.3 1.6571 -4.0243 8.6295 3.04557 -9.412 3.9771 -0.7758 -4.67279 -16.6438 45.0112 -0.7531 -40.938 0 14.8596 47.0411 -7.94137 0 -40.1986 0 -14.3313 -3.57693 -22.6321 7.10543e-015 -4.4182 9.239 25.0657 -3.1589 -8.05451 9.4119 3.9773 -0.7758 -22.9416 3.51827 -2.54168 0.7532 -40.9383 -1.42109e-014 0.430803 -0.000195879 0.600977 7.10543e-015 -40.1986 0 8.6909 -2.40731 -5.82436 7.10543e-015 -4.4182 9.239 5.76941 4.92454 -0.796431 
-38.1302 -3.55827 -49.9253 0 0 -0 7.10543e-015 78.7191 0 -0.832683 6.43765 103.346 0 8.7983 -4.7612 -0.0704551 -2.08321 0.806351 0 8.0291 0.4195 -0.111652 -4.16722 1.61176 0 9.9351 -2.2114 -0.111656 -4.16722 1.61174 0 22.3885 -0.4656 -0.571655 13.2002 -8.68959 -0.0001 12.643 3.4389 -6.46032 -1.25505 -8.83618 2.2603 21.606 7.4023 0.970729 0.900623 -3.85738 13.5163 -1.1332 -5.0146 4.28617 30.7998 26.727 -0.0995 -28.05 -0.2431 -10.3421 -22.14 -10.3288 0.0679 -23.3996 -0.1402 -10.5511 1.48272 41.9824 0.7932 -9.069 2.5189 -0.343422 0.459722 -0.0924563 -0.8272 -3.3923 0.5977 -0.253736 0.158005 -0.0135137 -0.5649 -2.3158 0.4082 -0.313814 0.195198 -0.0162687 0.9159 -9.2044 0.2193 1.71758 -1.02635 0.1037 0.0117 -4.1944 -0.0248 -0.136227 -0.69494 0.158817 0.0071 -2.3249 -0.0142 1.72596 -1.0758 0.185944 0.6113 -8.7231 -2.0637 1.83926 -5.98264 2.54818 -0.1927 -3.8059 -0.2383 -0.327046 -1.97838 0.68198 -0.1091 -2.1688 -0.1362 4.14409 -2.81303 0.64842 -0.6151 -8.0947 -3.5641 10.8267 -7.05122 2.46961 -0.4882 -2.341 -0.6462 -0.0607531 -1.55708 1.35711 -0.3575 -1.7167 -0.4742 2.46959 -1.65138 0.434246 -1.42 -1.8761 1.4223 0.11716 0.267756 -0.0671798 -1.1471 -3.4929 2.6334 -0.0416152 -0.0549407 0.0116869 -0.823 -2.3 1.6571 0.0930986 0.123732 -0.0258223 -2.2603 21.606 7.4023 -44.7152 -1.13873 12.0114 -13.5187 -1.1334 -5.0155 -93.2856 9.74155 -51.9991 0.0994 -28.0499 -0.2431 -3.37479 -25.3472 -35.0547 -0.0679 -23.3996 -0.1402 5.51008 6.30767 -23.1867 -0.7932 -9.0691 2.5189 -26.3168 9.86704 9.08434 0.8272 -3.3923 0.5977 39.4242 12.0338 -4.97713 0.565 -2.3158 0.4082 38.7304 11.8651 -4.82266 -0.916 -9.2044 0.2193 -2.2335 10.2523 5.03864 -0.0117 -4.1944 -0.0248 52.3753 15.6205 -6.40198 -0.0071 -2.3249 -0.0142 44.0892 13.7161 -4.48628 -0.6113 -8.7231 -2.0637 15.0073 7.58691 -5.70556 0.1927 -3.8059 -0.2383 37.2883 13.8497 -2.53191 0.1091 -2.1688 -0.1362 38.5715 14.2637 -2.77358 0.6151 -8.0947 -3.564 23.054 4.37541 -8.90255 0.4882 -2.341 -0.6462 30.7535 11.5468 -0.514464 0.3574 -1.7166 -0.4742 30.6849 11.5225 -0.506211 1.4199 -1.8761 1.4221 7.91151 0.88021 52.6243 1.1472 -3.4929 2.6336 -0.671298 1.52888 0.489688 0.822901 -2.3 1.6571 -4.02432 8.6295 3.04558 -9.412 3.9771 -0.7758 -5.08724 -16.4427 44.3235 -0.7531 -40.938 0 14.8733 47.0084 -7.94814 -7.10543e-015 -40.1986 3.55271e-015 -14.3002 -3.77483 -22.7036 7.10543e-015 -4.4182 9.239 25.0128 -3.52344 -7.85735 9.4119 3.9773 -0.7758 -23.0635 3.74347 -2.96032 0.7532 -40.9383 0 0.42933 -0.00021255 0.594782 0 -40.1986 0 8.6506 -2.3166 -6.19791 0 -4.4182 9.239 5.79896 4.68983 -0.772556 
